<?xml version="1.0" encoding="UTF-8"?><svg id="Layer_1" xmlns="http://www.w3.org/2000/svg" viewBox="0 0 400 400"><defs><style>.cls-1{fill:#cecbcb;}</style></defs><g id="Group_1919"><path id="Path_1510" class="cls-1" d="M340.98,147.51h-35.25v-44.06c0-53.52-43.39-96.91-96.91-96.91h-17.63c-53.52,0-96.91,43.39-96.91,96.91h0v44.05H59.02c-9.73,0-17.62,7.89-17.62,17.62v211.47c0,9.73,7.89,17.62,17.62,17.62H340.98c9.73,0,17.62-7.89,17.62-17.62h0V165.12c0-9.73-7.89-17.62-17.62-17.62h0Zm-211.46-44.05c0-34.06,27.61-61.68,61.68-61.68h17.62c34.06,0,61.68,27.62,61.68,61.68v44.05H129.52v-44.05Zm193.82,255.5H76.66V182.74h246.69v176.22Z"/><path id="Path_1511" class="cls-1" d="M234.35,252.36c-.21-19.47-16.16-35.08-35.62-34.87-19.47,.21-35.08,16.16-34.87,35.62,.13,12.46,6.84,23.92,17.63,30.15v22.02c0,9.73,7.89,17.62,17.62,17.62s17.62-7.89,17.62-17.62h0v-22.09c11-6.35,17.73-18.14,17.62-30.84Z"/></g></svg>