<?xml version="1.0" encoding="UTF-8"?><svg id="Layer_1" xmlns="http://www.w3.org/2000/svg" viewBox="0 0 400 400"><defs><style>.cls-1{fill:#cecbcb;}</style></defs><path class="cls-1" d="M200,12.04c-51.7,.78-92.98,43.31-92.22,95.01-.76,51.7,40.52,94.23,92.22,95.01,51.71-.76,93.01-43.3,92.25-95.01,.76-51.71-40.54-94.25-92.25-95.01Zm0,155.46c-32.89-.5-59.16-27.55-58.69-60.45-1.03-32.41,24.41-59.52,56.82-60.55,32.41-1.03,59.52,24.41,60.55,56.82,.04,1.24,.04,2.49,0,3.73,.49,32.9-25.78,59.97-58.69,60.46h0Z"/><path class="cls-1" d="M360.72,270.65c-47.57-31.74-103.52-48.6-160.72-48.42-57.03-.04-112.85,16.44-160.72,47.46l-8.46,5.8v92.29c-.16,10.54,8.26,19.21,18.8,19.36H350.38c10.54-.15,18.95-8.82,18.8-19.36h0v-92.3l-8.46-4.84Zm-29.14,77.78H68.42v-51.55c39.91-23.39,85.32-35.75,131.58-35.82,46.41-.05,91.93,12.68,131.58,36.8v50.57Z"/></svg>