<svg width="791" height="675" viewBox="0 0 791 675" fill="none" xmlns="http://www.w3.org/2000/svg">
<path fill-rule="evenodd" clip-rule="evenodd" d="M195.816 22.8362C150.825 47.3424 133.155 108.08 148.514 135.388C163.873 162.695 231.736 211.339 159.763 270.835C103.731 317.154 21.3972 270.192 5.04225 313.201C-11.3127 356.21 1.92594 564.517 202.099 610.098C306.323 628.11 317.805 579.471 351.647 551.659C385.491 523.848 535.053 436.306 629.741 446.029C724.425 455.75 805.325 415.02 788.858 287.651C772.391 160.283 722.764 -13.8499 520.67 6.22358C440.255 18.7339 438.976 66.4443 384.151 71.8295C329.325 77.2146 330.74 -50.6541 195.816 22.8362Z" fill="url(#paint0_linear)"/>
<path fill-rule="evenodd" clip-rule="evenodd" d="M715.842 125H232.158C229.309 125 227 127.309 227 130.158V387.462C227 390.311 229.309 392.621 232.158 392.621H715.842C718.691 392.621 721 390.311 721 387.462V130.158C721 127.309 718.691 125 715.842 125ZM228.07 130.156C228.07 127.899 229.899 126.069 232.157 126.069H715.84C718.098 126.069 719.927 127.899 719.927 130.156V387.461C719.927 389.718 718.098 391.547 715.84 391.547H232.157C229.899 391.547 228.07 389.718 228.07 387.461V130.156Z" fill="white"/>
<path d="M228.07 130.153C228.07 127.896 229.9 126.066 232.157 126.066H715.841C718.098 126.066 719.928 127.896 719.928 130.153V154.201H228.07V130.153Z" fill="white" fill-opacity="0.236188"/>
<path d="M252.159 137.022C252.161 137.644 251.658 138.163 251.036 138.181C250.414 138.2 249.908 137.711 249.906 137.089L249.893 132.808C249.892 132.186 250.394 131.667 251.016 131.649C251.638 131.63 252.144 132.119 252.146 132.741L252.159 137.022Z" fill="white"/>
<path d="M251.944 147.799C251.936 148.421 251.425 148.931 250.803 148.94C250.181 148.948 249.683 148.45 249.692 147.828L249.75 143.546C249.759 142.924 250.27 142.413 250.892 142.405C251.514 142.397 252.011 142.894 252.002 143.516L251.944 147.799Z" fill="white"/>
<path d="M254.152 141.234C253.53 141.242 253.033 140.745 253.041 140.123C253.049 139.501 253.56 138.99 254.182 138.981L258.464 138.923C259.086 138.915 259.584 139.412 259.576 140.034C259.567 140.656 259.057 141.167 258.435 141.175L254.152 141.234Z" fill="white"/>
<path d="M243.246 141.382C242.624 141.391 242.126 140.893 242.134 140.271C242.143 139.649 242.653 139.138 243.275 139.13L247.558 139.072C248.18 139.063 248.677 139.56 248.669 140.182C248.661 140.804 248.15 141.315 247.528 141.324L243.246 141.382Z" fill="white"/>
<rect x="594.777" y="169.445" width="109.083" height="204.42" fill="url(#paint1_linear)"/>
<rect x="242.355" y="169.445" width="109.083" height="204.42" fill="url(#paint2_linear)"/>
<rect x="369.469" y="169.445" width="208.169" height="204.42" fill="url(#paint3_linear)"/>
<path d="M388.754 316.2V308.166C388.754 307.673 388.355 307.273 387.862 307.273H384.291C383.798 307.273 383.398 307.673 383.398 308.166V316.2" stroke="white" stroke-width="1.78533" stroke-linecap="round" stroke-linejoin="round"/>
<path d="M399.465 316.201V299.24C399.465 298.747 399.066 298.348 398.573 298.348H395.002C394.509 298.348 394.109 298.747 394.109 299.24V316.201" stroke="white" stroke-width="1.78533" stroke-linecap="round" stroke-linejoin="round"/>
<path d="M410.176 316.197V302.807C410.176 302.314 409.777 301.914 409.284 301.914H405.713C405.22 301.914 404.82 302.314 404.82 302.807V316.197" stroke="white" stroke-width="1.78533" stroke-linecap="round" stroke-linejoin="round"/>
<path d="M420.887 316.198V290.311C420.887 289.818 420.488 289.418 419.995 289.418H416.424C415.931 289.418 415.531 289.818 415.531 290.311V316.198" stroke="white" stroke-width="1.78533" stroke-linecap="round" stroke-linejoin="round"/>
<path opacity="0.403855" d="M257.44 278.528H314.947" stroke="white" stroke-width="1.70289" stroke-linecap="round"/>
<path opacity="0.403855" d="M257.44 290.832H329.653" stroke="white" stroke-width="1.70289" stroke-linecap="round"/>
<path opacity="0.403855" d="M257.44 302.976H315.014" stroke="white" stroke-width="1.70289" stroke-linecap="round"/>
<path opacity="0.403855" d="M257.44 314.941H315.014" stroke="white" stroke-width="1.70289" stroke-linecap="round"/>
<path opacity="0.403855" d="M257.44 327.078H338.653" stroke="white" stroke-width="1.70289" stroke-linecap="round"/>
<path opacity="0.338904" fill-rule="evenodd" clip-rule="evenodd" d="M577.633 271.75H369.887L369.887 250.078L387.825 241.376L407.386 248.281L425.005 243.663L445.347 270.165L463.336 239.745L483.094 254.278L500.987 245.503L519.629 250.75L539.387 239.063L558.139 242.154L577.633 218.938" fill="url(#paint4_linear)"/>
<path d="M369.465 250.243L387.75 241.768C388.013 241.646 388.312 241.629 388.587 241.721L407.301 247.963C407.508 248.032 407.73 248.04 407.942 247.986L425.663 243.459C426.121 243.342 426.603 243.52 426.874 243.907L443.949 268.264C444.417 268.93 445.413 268.903 445.843 268.211L462.882 240.816C463.235 240.248 464.001 240.107 464.533 240.512L482.217 253.969C482.566 254.234 483.036 254.275 483.425 254.074L499.897 245.573C500.152 245.442 500.447 245.411 500.723 245.488L519.153 250.636C519.456 250.721 519.78 250.676 520.049 250.513L538.622 239.205C538.848 239.067 539.116 239.013 539.378 239.051L556.671 241.601C557.055 241.658 557.44 241.515 557.694 241.222L577.211 218.723" stroke="white" stroke-width="1.78533" stroke-linecap="square"/>
<ellipse cx="649.191" cy="217.649" rx="27.6247" ry="27.7547" fill="url(#paint5_linear)" stroke="white" stroke-width="1.70289" stroke-linecap="round" stroke-linejoin="round"/>
<path d="M653.987 209.203H648.842C646.777 209.204 644.984 210.631 644.509 212.65C644.035 214.669 645.004 216.751 646.851 217.679L651.535 220.035C653.382 220.963 654.351 223.045 653.876 225.064C653.402 227.083 651.608 228.51 649.544 228.511H644.379" stroke="white" stroke-width="1.70289" stroke-linecap="round" stroke-linejoin="round"/>
<path d="M647.992 228.504V232.124" stroke="white" stroke-width="1.70289" stroke-linecap="round" stroke-linejoin="round"/>
<path d="M650.395 205.582V209.202" stroke="white" stroke-width="1.70289" stroke-linecap="round" stroke-linejoin="round"/>
<path d="M271.395 233.828H283.528" stroke="white" stroke-width="1.70289" stroke-linecap="round" stroke-linejoin="round"/>
<path d="M268.969 243.164H324.781" stroke="white" stroke-width="1.70289" stroke-linecap="round" stroke-linejoin="round"/>
<path d="M268.969 238.5H324.781" stroke="white" stroke-width="1.70289" stroke-linecap="round" stroke-linejoin="round"/>
<path d="M271.395 215.16H283.528" stroke="white" stroke-width="1.70289" stroke-linecap="round" stroke-linejoin="round"/>
<path d="M290.812 233.828H302.946" stroke="white" stroke-width="1.70289" stroke-linecap="round" stroke-linejoin="round"/>
<path d="M290.812 215.16H302.946" stroke="white" stroke-width="1.70289" stroke-linecap="round" stroke-linejoin="round"/>
<path d="M310.227 233.828H322.36" stroke="white" stroke-width="1.70289" stroke-linecap="round" stroke-linejoin="round"/>
<path d="M310.227 215.16H322.36" stroke="white" stroke-width="1.70289" stroke-linecap="round" stroke-linejoin="round"/>
<path fill-rule="evenodd" clip-rule="evenodd" d="M271.747 208.407C271.337 208.713 271.175 209.235 271.343 209.707C271.511 210.179 271.973 210.496 272.492 210.495H321.267C321.785 210.496 322.247 210.181 322.416 209.71C322.586 209.239 322.425 208.716 322.017 208.409L297.695 190.056C297.256 189.726 296.639 189.726 296.2 190.056L271.747 208.407Z" fill="url(#paint6_linear)" stroke="white" stroke-width="1.70289" stroke-linecap="round" stroke-linejoin="round"/>
<rect x="273.891" y="215.184" width="7.3041" height="18.573" fill="url(#paint7_linear)" stroke="white" stroke-width="1.70289"/>
<rect x="293.234" y="215.184" width="7.3041" height="18.573" fill="url(#paint8_linear)" stroke="white" stroke-width="1.70289"/>
<rect x="312.582" y="215.184" width="7.3041" height="18.573" fill="url(#paint9_linear)" stroke="white" stroke-width="1.70289"/>
<path fill-rule="evenodd" clip-rule="evenodd" d="M386.008 198.565C386.481 199.038 386.717 199.603 386.717 200.261C386.717 201.067 386.449 201.697 385.913 202.151C385.378 202.606 384.633 202.833 383.679 202.833C382.844 202.833 382.14 202.591 381.567 202.107C380.995 201.623 380.708 200.812 380.708 199.673H378.602L378.58 199.729C378.55 201.266 378.942 202.432 379.755 203.227C380.568 204.021 381.61 204.485 382.881 204.618V206.736H384.622V204.607C385.952 204.467 386.998 204.021 387.759 203.271C388.521 202.521 388.901 201.51 388.901 200.239C388.901 198.99 388.535 198.001 387.804 197.273C387.072 196.545 385.949 195.937 384.433 195.45C383.266 195.05 382.458 194.629 382.011 194.186C381.564 193.742 381.34 193.162 381.34 192.445C381.34 191.654 381.556 191.032 381.989 190.577C382.421 190.122 383.073 189.895 383.946 189.895C384.773 189.895 385.42 190.206 385.886 190.826C386.351 191.447 386.584 192.26 386.584 193.265H388.757C388.757 191.78 388.415 190.595 387.732 189.712C387.048 188.829 386.085 188.299 384.844 188.121V185.66H383.092V188.11C381.865 188.265 380.902 188.727 380.204 189.496C379.505 190.265 379.156 191.259 379.156 192.478C379.156 193.735 379.537 194.74 380.298 195.494C381.059 196.248 382.186 196.85 383.679 197.301C384.759 197.671 385.535 198.092 386.008 198.565ZM391.408 204.427H401.874V202.72H394.113L394.091 202.665L398.337 198.042C399.276 197.029 400.006 196.081 400.527 195.198C401.048 194.315 401.309 193.433 401.309 192.554C401.309 191.246 400.878 190.168 400.017 189.322C399.156 188.476 398.001 188.053 396.552 188.053C394.853 188.053 393.522 188.526 392.561 189.472C391.601 190.418 391.139 191.586 391.176 192.975L391.198 193.042H393.293C393.293 192.007 393.557 191.203 394.086 190.63C394.614 190.057 395.436 189.771 396.552 189.771C397.329 189.771 397.951 190.046 398.421 190.597C398.89 191.148 399.125 191.826 399.125 192.631C399.125 193.282 398.956 193.917 398.62 194.538C398.284 195.159 397.643 195.998 396.697 197.055L391.408 202.931V204.427ZM406.371 203.898L404.708 207.29H403.411L404.187 203.787V201.98H406.371V203.898ZM419.621 198.998H417.392V188.288H415.086L407.969 199.475V200.705H415.219V204.43H417.392V200.705H419.621V198.998ZM410.3 198.997H415.222V191.425L415.156 191.414L414.945 191.969L410.3 198.997ZM423.011 188.288L422.08 197.146L423.898 197.335C424.076 196.803 424.356 196.407 424.741 196.149C425.125 195.89 425.746 195.761 426.603 195.761C427.512 195.761 428.226 196.093 428.743 196.758C429.26 197.424 429.519 198.274 429.519 199.308C429.519 200.439 429.264 201.33 428.754 201.98C428.244 202.631 427.527 202.956 426.603 202.956C425.798 202.956 425.142 202.714 424.635 202.23C424.129 201.746 423.876 201.064 423.876 200.184H421.903L421.88 200.251C421.843 201.699 422.279 202.797 423.189 203.543C424.098 204.29 425.236 204.663 426.603 204.663C428.266 204.663 429.532 204.172 430.4 203.189C431.269 202.206 431.703 200.905 431.703 199.286C431.703 197.623 431.276 196.3 430.423 195.317C429.569 194.334 428.399 193.85 426.914 193.865C426.367 193.88 425.884 193.97 425.467 194.137C425.049 194.303 424.67 194.512 424.33 194.763L424.863 190.229H431.093V188.288H423.011ZM440.411 188.053C440.965 188.053 441.514 188.115 442.057 188.241C442.6 188.367 443.049 188.526 443.404 188.718L442.938 190.392C442.576 190.207 442.197 190.057 441.802 189.943C441.407 189.828 440.943 189.771 440.411 189.771C439.258 189.771 438.328 190.233 437.622 191.157C436.916 192.081 436.564 193.285 436.564 194.771V195.026C437.037 194.612 437.578 194.289 438.188 194.056C438.798 193.823 439.453 193.707 440.156 193.707C441.597 193.707 442.746 194.206 443.604 195.203C444.461 196.201 444.89 197.465 444.89 198.995C444.89 200.665 444.433 202.027 443.52 203.08C442.608 204.134 441.39 204.66 439.867 204.66C438.286 204.66 436.977 204.087 435.943 202.942C434.908 201.796 434.391 200.181 434.391 198.097V195.015C434.391 192.945 434.967 191.268 436.12 189.982C437.273 188.696 438.703 188.053 440.411 188.053ZM437.762 195.794C438.287 195.491 438.923 195.339 439.669 195.339C440.622 195.339 441.367 195.683 441.903 196.37C442.439 197.058 442.707 197.933 442.707 198.998C442.707 200.121 442.457 201.062 441.958 201.819C441.459 202.577 440.763 202.956 439.869 202.956C438.923 202.956 438.135 202.553 437.507 201.747C436.879 200.942 436.565 199.796 436.565 198.31V197.002C436.838 196.5 437.237 196.097 437.762 195.794ZM449.676 204.429H447.492V202.189H449.676V204.429ZM454.655 188.288L453.723 197.146L455.542 197.335C455.719 196.803 456 196.407 456.384 196.149C456.768 195.89 457.389 195.761 458.247 195.761C459.156 195.761 459.869 196.093 460.386 196.758C460.904 197.424 461.162 198.274 461.162 199.308C461.162 200.439 460.907 201.33 460.397 201.98C459.887 202.631 459.17 202.956 458.247 202.956C457.441 202.956 456.785 202.714 456.279 202.23C455.772 201.746 455.519 201.064 455.519 200.184H453.546L453.524 200.251C453.487 201.699 453.923 202.797 454.832 203.543C455.741 204.29 456.879 204.663 458.247 204.663C459.91 204.663 461.175 204.172 462.044 203.189C462.912 202.206 463.346 200.905 463.346 199.286C463.346 197.623 462.92 196.3 462.066 195.317C461.212 194.334 460.043 193.85 458.557 193.865C458.01 193.88 457.528 193.97 457.11 194.137C456.693 194.303 456.314 194.512 455.974 194.763L456.506 190.229H462.737V188.288H454.655ZM476.093 198.274C476.093 200.336 475.637 201.916 474.724 203.014C473.811 204.111 472.56 204.66 470.971 204.66C469.382 204.66 468.125 204.11 467.202 203.008C466.278 201.907 465.816 200.329 465.816 198.274V194.45C465.816 192.395 466.276 190.815 467.196 189.71C468.116 188.605 469.367 188.053 470.949 188.053C472.538 188.053 473.792 188.605 474.713 189.71C475.633 190.815 476.093 192.395 476.093 194.45V198.274ZM473.153 190.832C473.659 191.537 473.912 192.589 473.912 193.986V198.72C473.912 200.124 473.663 201.181 473.164 201.89C472.665 202.6 471.935 202.955 470.974 202.955C470.013 202.955 469.278 202.598 468.768 201.885C468.258 201.172 468.003 200.116 468.003 198.72V193.986C468.003 192.589 468.254 191.537 468.757 190.832C469.259 190.126 469.991 189.773 470.952 189.773C471.913 189.773 472.646 190.126 473.153 190.832Z" fill="white"/>
<ellipse cx="538.616" cy="303.404" rx="19.7015" ry="19.7044" fill="white" fill-opacity="0.487079"/>
<mask id="mask0" mask-type="alpha" maskUnits="userSpaceOnUse" x="518" y="283" width="41" height="41">
<ellipse cx="538.616" cy="303.404" rx="19.7015" ry="19.7044" fill="white"/>
</mask>
<g mask="url(#mask0)">
<path opacity="0.608398" fill-rule="evenodd" clip-rule="evenodd" d="M538.258 280.113L538.616 303.4L554.735 288.712L549.004 282.621L538.258 280.113Z" fill="white"/>
<path fill-rule="evenodd" clip-rule="evenodd" d="M555.832 288L538.495 303.548L554.737 320.244L560.99 297.757L555.832 288Z" fill="white"/>
</g>
<rect opacity="0.157134" x="606.375" y="271.922" width="14.8182" height="14.6397" fill="white"/>
<rect opacity="0.386277" x="629.941" y="271.922" width="14.8182" height="14.6397" fill="white"/>
<rect opacity="0.386277" x="653.688" y="271.922" width="14.8182" height="14.6397" fill="white"/>
<rect opacity="0.676525" x="677.438" y="271.922" width="14.8182" height="14.6397" fill="white"/>
<rect opacity="0.386277" x="606.375" y="295.488" width="14.8182" height="14.6397" fill="white"/>
<rect opacity="0.676525" x="629.941" y="295.488" width="14.8182" height="14.6397" fill="white"/>
<rect opacity="0.386277" x="653.688" y="295.488" width="14.8182" height="14.6397" fill="white"/>
<rect opacity="0.157134" x="677.438" y="295.488" width="14.8182" height="14.6397" fill="white"/>
<path opacity="0.276948" fill-rule="evenodd" clip-rule="evenodd" d="M746.001 659.145C746.001 667.509 605.187 674.29 431.483 674.29C257.779 674.29 23.5859 666.074 23.5859 657.71C23.5859 649.344 257.779 644 431.483 644C605.187 644 746.001 650.781 746.001 659.145" fill="#1CA6EA"/>
<path fill-rule="evenodd" clip-rule="evenodd" d="M412.993 586.353C400.078 633.298 356.898 658.285 287.248 658.285C197.688 658.285 177.874 636.654 160.775 586.353C145.829 542.387 153.641 404.073 197.688 390.949C236.04 379.522 260.171 505.979 286.884 505.979C356.533 505.979 424.765 543.563 412.993 586.353" fill="#8B9FB7"/>
<path fill-rule="evenodd" clip-rule="evenodd" d="M322.271 568.934L340.115 517.441L321.941 530.007L322.271 568.934Z" fill="#1D273F"/>
<path fill-rule="evenodd" clip-rule="evenodd" d="M289.193 334.22C298.529 334.643 309.997 340.121 308.101 355.769C306.777 366.742 303.545 385.478 296.437 385.81C293.289 385.956 282.684 381.585 282.684 381.585L280.855 399.307L261.359 388.558L269.844 371.793C269.844 371.793 258.416 332.83 289.193 334.22" fill="#E2857E"/>
<path fill-rule="evenodd" clip-rule="evenodd" d="M468.847 559.02L441.305 593.162L430.984 581.812L439.516 564.34L463.4 553.785L468.847 559.02Z" fill="white"/>
<path fill-rule="evenodd" clip-rule="evenodd" d="M347.354 492.709C334.297 484.832 278.692 525.265 278.692 525.265C278.692 525.265 248.575 522.733 238.711 541.364C235.947 546.583 320.474 528.212 329.263 527.368C331.687 527.137 339.452 520.297 343.56 520.243C345.41 520.218 355.224 527.507 359.868 531.828C364.07 535.737 373.834 544.351 378.094 547.471C395.985 560.594 432.106 581.047 432.106 581.047L437.044 571.335C437.044 571.335 356.808 498.413 347.354 492.709" fill="#D17875"/>
<path fill-rule="evenodd" clip-rule="evenodd" d="M418.869 643.161L376.604 656.774L373.434 641.158L390.142 631.027L416.801 635.569L418.869 643.161Z" fill="white"/>
<path fill-rule="evenodd" clip-rule="evenodd" d="M341.706 526.118C334.602 512.694 268.434 525.238 268.434 525.238C268.434 525.238 244.759 511.353 228.716 524.847C224.222 528.625 227.778 549.386 229.422 554.088C240.278 585.153 321.331 537.202 326.364 544.433C331.404 551.667 331.834 554.805 341.149 579.618C346.519 593.925 378.586 638.594 378.586 638.594L388.579 632.678C388.579 632.678 346.717 535.573 341.706 526.118" fill="#E2857E"/>
<path fill-rule="evenodd" clip-rule="evenodd" d="M267.997 393.29C281.138 394.406 284.455 425.662 270.045 482.697L324.971 502.079L315.793 511.381C315.793 511.381 258.801 509.596 249.44 488.959C240.079 468.321 243.76 391.236 267.997 393.29" fill="#2A3756"/>
<path fill-rule="evenodd" clip-rule="evenodd" d="M266.903 387.241C257.456 387.831 246.064 392.606 239.972 410.539C232.634 431.419 217.013 486.031 223.545 534.932C227.867 567.286 240.006 571.967 251.719 573.71C279.309 577.812 321.399 570.736 321.399 570.736C321.399 570.736 321.076 522.615 335.572 493.335C321.076 496.326 299.043 510.579 299.043 510.579C277.633 470.422 296.539 410.071 282.746 394.948C278.303 390.078 274.937 386.74 266.903 387.241" fill="#2A3756"/>
<path fill-rule="evenodd" clip-rule="evenodd" d="M336.613 500.79C344.56 501.054 350.87 505.396 350.714 510.495C350.679 511.613 350.339 512.671 349.743 513.641L323.879 514.408C322.601 512.966 321.891 511.303 321.944 509.553C322.104 504.451 328.67 500.53 336.613 500.79" fill="#D37B79"/>
<path fill-rule="evenodd" clip-rule="evenodd" d="M253.907 399.309C266.83 399.342 270.034 431.691 255.913 488.747L300.213 503.77L300.738 517.439C300.738 517.439 244.898 517.224 235.726 496.576C226.554 475.933 238.95 399.27 253.907 399.309" fill="#2A3756"/>
<path fill-rule="evenodd" clip-rule="evenodd" d="M321.469 503.821C329.415 504.082 335.726 508.428 335.569 513.529C335.533 514.643 335.194 515.705 334.599 516.676L308.735 517.439C307.457 516.001 306.746 514.338 306.8 512.584C306.958 507.484 313.525 503.558 321.469 503.821" fill="#E2857E"/>
<path fill-rule="evenodd" clip-rule="evenodd" d="M299.422 506.836L311.343 509.661L310.317 517.124L299.227 517.437L299.422 506.836Z" fill="#E2857E"/>
<path fill-rule="evenodd" clip-rule="evenodd" d="M371.306 518.949H329.512L358.898 472H400.693L371.306 518.949Z" fill="#4D4D4D"/>
<path fill-rule="evenodd" clip-rule="evenodd" d="M342.526 518.955H288.621V516.92L344.657 515.926L342.526 518.955Z" fill="#4D4D4D"/>
<mask id="mask1" mask-type="alpha" maskUnits="userSpaceOnUse" x="197" y="325" width="108" height="129">
<path fill-rule="evenodd" clip-rule="evenodd" d="M197.844 325.523H304.842V453.817H197.844V325.523Z" fill="white"/>
</mask>
<g mask="url(#mask1)">
<path fill-rule="evenodd" clip-rule="evenodd" d="M271.425 327.095H271.422C235.209 340.349 226.5 443.929 197.844 451.584C252.937 470.384 277.191 364.296 277.191 364.296C278.133 362.948 274.038 357.584 277.676 353.843C280.632 350.803 284.564 350.711 285.596 355.882C285.596 355.882 297.252 339.371 304.842 340.183C302.772 329.49 281.324 322.158 271.425 327.095" fill="#333333"/>
</g>
<path fill-rule="evenodd" clip-rule="evenodd" d="M181.094 506.836C181.094 506.836 243.209 524.576 264.167 538.674C274.254 545.459 293.042 554.125 307.026 560.103C313.27 562.773 328.192 560.554 328.192 560.554L334.058 574.312L242.624 618.909L181.094 506.836Z" fill="#8B9FB7"/>
<path fill-rule="evenodd" clip-rule="evenodd" d="M188.664 516.284C188.664 516.284 226.047 511.128 266.468 539.95C306.89 568.771 331.027 559.878 331.027 559.878C331.027 559.878 301.309 578.044 263.959 551.295C225.775 523.95 188.664 516.284 188.664 516.284" fill="#6F8396"/>
<path fill-rule="evenodd" clip-rule="evenodd" d="M566.156 650.66L542.409 452.091H513.422L489.669 650.715L483.996 650.659L508.44 446.258H547.392L571.837 650.659L566.156 650.66Z" fill="#2A3756"/>
<path fill-rule="evenodd" clip-rule="evenodd" d="M502.168 512.894H552.146V506.836H502.168V512.894Z" fill="#2A3756"/>
<path fill-rule="evenodd" clip-rule="evenodd" d="M524.887 452.314H530.945V406.879H524.887V452.314Z" fill="#2A3756"/>
<path fill-rule="evenodd" clip-rule="evenodd" d="M554.1 340.242H498.694L487.02 419.016C487.02 420.677 504.648 422.025 526.396 422.025C548.144 422.025 565.773 420.677 565.773 419.016L554.1 340.242Z" fill="#2A3756"/>
<path fill-rule="evenodd" clip-rule="evenodd" d="M555.174 340.128C555.174 341.801 543.326 343.269 527.913 343.269C512.499 343.269 500.652 341.801 500.652 340.128C500.652 338.456 512.499 337.211 527.913 337.211C543.326 337.211 555.174 338.456 555.174 340.128" fill="#1D273F"/>
<defs>
<linearGradient id="paint0_linear" x1="-395.5" y1="307" x2="199.315" y2="1073.28" gradientUnits="userSpaceOnUse">
<stop stop-color="#6ED0F2"/>
<stop offset="0.668103" stop-color="#4FA6E4"/>
<stop offset="1" stop-color="#1CA6EA"/>
</linearGradient>
<linearGradient id="paint1_linear" x1="594.777" y1="169.445" x2="594.777" y2="373.865" gradientUnits="userSpaceOnUse">
<stop stop-color="white" stop-opacity="0.376448"/>
<stop offset="1" stop-color="white" stop-opacity="0.01"/>
</linearGradient>
<linearGradient id="paint2_linear" x1="242.355" y1="169.445" x2="242.355" y2="373.865" gradientUnits="userSpaceOnUse">
<stop stop-color="white" stop-opacity="0.376448"/>
<stop offset="1" stop-color="white" stop-opacity="0.01"/>
</linearGradient>
<linearGradient id="paint3_linear" x1="369.469" y1="169.445" x2="369.469" y2="373.865" gradientUnits="userSpaceOnUse">
<stop stop-color="white" stop-opacity="0.376448"/>
<stop offset="1" stop-color="white" stop-opacity="0.01"/>
</linearGradient>
<linearGradient id="paint4_linear" x1="577.633" y1="271.75" x2="577.633" y2="218.938" gradientUnits="userSpaceOnUse">
<stop stop-color="white" stop-opacity="0.01"/>
<stop offset="1" stop-color="white"/>
</linearGradient>
<linearGradient id="paint5_linear" x1="615.936" y1="249.945" x2="666.516" y2="270.612" gradientUnits="userSpaceOnUse">
<stop stop-color="white" stop-opacity="0.01"/>
<stop offset="1" stop-color="white" stop-opacity="0.396471"/>
</linearGradient>
<linearGradient id="paint6_linear" x1="266.059" y1="212.188" x2="292.973" y2="239.536" gradientUnits="userSpaceOnUse">
<stop stop-color="white" stop-opacity="0.01"/>
<stop offset="1" stop-color="white" stop-opacity="0.4"/>
</linearGradient>
<linearGradient id="paint7_linear" x1="271.055" y1="228.624" x2="281.763" y2="231.894" gradientUnits="userSpaceOnUse">
<stop stop-color="white" stop-opacity="0.01"/>
<stop offset="1" stop-color="white" stop-opacity="0.3"/>
</linearGradient>
<linearGradient id="paint8_linear" x1="290.399" y1="228.624" x2="301.107" y2="231.894" gradientUnits="userSpaceOnUse">
<stop stop-color="white" stop-opacity="0.01"/>
<stop offset="1" stop-color="white" stop-opacity="0.3"/>
</linearGradient>
<linearGradient id="paint9_linear" x1="309.747" y1="228.624" x2="320.455" y2="231.894" gradientUnits="userSpaceOnUse">
<stop stop-color="white" stop-opacity="0.01"/>
<stop offset="1" stop-color="white" stop-opacity="0.3"/>
</linearGradient>
</defs>
</svg>
