<?xml version="1.0" encoding="UTF-8"?><svg id="Layer_1" xmlns="http://www.w3.org/2000/svg" viewBox="0 0 400 400"><defs><style>.cls-1{fill:#5c2d91;}</style></defs><path class="cls-1" d="M196.85,8.54c70.29-.04,128.56,48.02,141.16,113.32,4.62,23.95,1.94,46.89-6.65,69.52-12.67,33.4-30.31,64.17-49.34,94.2-21.83,34.44-45.63,67.49-70.77,99.59-6.19,7.9-15.43,8.5-21.3,.97-39.24-50.41-76.2-102.36-105.4-159.41-7.92-15.46-14.64-31.43-19.79-48.06-8.37-27.06-5.84-53.72,4.31-79.53C86.48,54.89,118.54,26.28,164.31,13.25c11.68-3.32,23.68-4.63,32.54-4.71Zm2.74,178.61c27.79,.07,50.87-22.74,51.02-50.43,.16-28.4-22.55-51.57-50.62-51.64-28.36-.07-51.32,22.62-51.42,50.82-.09,28.24,22.73,51.17,51.01,51.24Z"/></svg>